# xmcd
#
# Track frame offsets: 
#        150
#        19740
#        36605
#        56575
#        68675
#        84180
#        106215
#        124517
#        138055
#        154842
#        168037
#        187772
#
# Disc length: 2748 seconds
#
# Revision: 0
# Processed by: cddbd v1.5.2PL0 Copyright (c) Steve Scherf et al.
# Submitted via: ExactAudioCopy v0.95a5
#
DISCID=8a0aba0c
DTITLE=Wrong Haircut - Back To The Hey Hey Ruby Red Moon
DYEAR=1993
DGENRE=A Cappella
TTITLE0=Hey Hey Hey Hey
TTITLE1=Napoleon
TTITLE2=Maharadjas Graveyard
TTITLE3=Look Out
TTITLE4=Sand, Clouds And Hope
TTITLE5=The Moon
TTITLE6=Down In The Basement
TTITLE7=Back To Bo
TTITLE8=Becky Thatcher In A Tea-Cup
TTITLE9=Road To The East
TTITLE10=Little One
TTITLE11=Another Time
EXTD=
EXTT0=
EXTT1=
EXTT2=
EXTT3=
EXTT4=
EXTT5=
EXTT6=
EXTT7=
EXTT8=
EXTT9=
EXTT10=
EXTT11=
PLAYORDER=
